# File created by Blade
# Date/Time:  Wed Jan 21 17:05:57 2015
# Frame Rate: 120.000 fps
#------------------------------------------------------
:FULLY-SPECIFIED
:DEGREES
216
root 19.735202 13.059295 -12.142962 -164.854688 3.369903 -179.862087
Spine 57.625861 4.804434 -4.498594
Head -17.379757 -0.215827 4.059610
LeftShoulder 16.319680 -58.091695 23.685604
LeftArm 53.450237 1.085422 -16.788800
LeftForeArm -3.585492 -0.000000 -0.147750
LeftHand -5.930553 -0.000000 20.782761
LeftHandThumb1 -26.253704 0.000000 33.147579
RightShoulder 7.256327 24.336522 -32.047823
RightArm 55.922941 40.680037 25.940961
RightForeArm -20.019727 -0.000000 9.210882
RightHand -11.171339 -0.000000 -26.211808
RightHandThumb1 -24.326973 -0.000000 -32.862282
LeftUpLeg -120.908484 26.404924 -15.153128
LeftLeg 132.507930 -0.000000 -0.000000
LeftFoot -49.138910 18.798338 -11.557353
LeftToeBase 26.482116 -0.000000 -0.000000
RightUpLeg -119.519365 -16.344349 13.718320
RightLeg 131.598777 -0.000000 -0.000000
RightFoot -50.303840 -24.347308 17.230477
RightToeBase 24.227012 -0.000000 -0.000000
217
root 19.723909 12.860594 -12.170485 -165.370027 3.443620 -179.779977
Spine 58.446243 4.886455 -4.300697
Head -17.502804 -0.283087 3.971826
LeftShoulder 16.421079 -58.373140 23.764773
LeftArm 53.362761 1.197438 -16.787912
LeftForeArm -3.665507 -0.000000 -0.022630
LeftHand -5.943402 -0.000000 21.055273
LeftHandThumb1 -26.253704 0.000000 33.147579
RightShoulder 7.286577 24.376690 -32.321776
RightArm 55.921759 40.709685 25.849437
RightForeArm -20.159697 -0.000000 9.228055
RightHand -11.201016 -0.000000 -26.300072
RightHandThumb1 -24.326973 -0.000000 -32.862282
LeftUpLeg -121.151857 26.604714 -14.963792
LeftLeg 133.211781 -0.000000 -0.000000
LeftFoot -49.119896 18.869220 -11.477222
LeftToeBase 26.554598 -0.000000 -0.000000
RightUpLeg -119.718791 -16.435809 13.720171
RightLeg 132.231204 -0.000000 -0.000000
RightFoot -50.122043 -24.372553 16.922931
RightToeBase 24.287005 -0.000000 -0.000000
218
root 19.711382 12.665751 -12.196247 -165.897760 3.524738 -179.709805
Spine 59.264308 4.942394 -4.158819
Head -17.582078 -0.233547 3.841144
LeftShoulder 16.387659 -58.430600 23.971617
LeftArm 53.356255 1.106258 -16.742630
LeftForeArm -3.752444 0.000000 -0.002577
LeftHand -5.927872 0.000000 21.299190
LeftHandThumb1 -26.253704 0.000000 33.147579
RightShoulder 7.387779 24.463730 -32.563301
RightArm 55.809635 40.678423 25.621787
RightForeArm -20.119211 -0.000000 9.274646
RightHand -11.272925 -0.000000 -26.411080
RightHandThumb1 -24.326973 -0.000000 -32.862282
LeftUpLeg -121.369711 26.785356 -14.774192
LeftLeg 133.893290 -0.000000 -0.000000
LeftFoot -49.052680 18.869410 -11.492217
LeftToeBase 26.405851 -0.000000 -0.000000
RightUpLeg -119.870241 -16.491205 13.675077
RightLeg 132.820484 -0.000000 -0.000000
RightFoot -50.043110 -24.476315 16.697987
RightToeBase 24.243151 -0.000000 -0.000000
219
root 19.699751 12.472583 -12.229859 -166.380398 3.567765 -179.537749
Spine 60.039193 5.094687 -3.720923
Head -17.687689 -0.439232 3.870272
LeftShoulder 16.388103 -58.306884 24.049755
LeftArm 53.771086 0.964599 -16.561736
LeftForeArm -4.002110 -0.000000 -0.136083
LeftHand -5.824690 -0.000000 21.527187
LeftHandThumb1 -26.253704 0.000000 33.147579
RightShoulder 7.252390 24.380095 -32.735958
RightArm 55.912053 40.648793 25.418883
RightForeArm -20.044058 0.000000 9.212068
RightHand -11.173398 -0.000000 -26.530355
RightHandThumb1 -24.326973 -0.000000 -32.862282
LeftUpLeg -121.626219 26.942744 -14.469147
LeftLeg 134.591165 -0.000000 -0.000000
LeftFoot -49.032529 18.932313 -11.474768
LeftToeBase 26.410097 -0.000000 -0.000000
RightUpLeg -120.116620 -16.617671 13.863259
RightLeg 133.429137 -0.000000 -0.000000
RightFoot -49.922513 -24.429744 16.606354
RightToeBase 24.254660 -0.000000 -0.000000
220
root 19.695161 12.295690 -12.263685 -166.965924 3.666342 -179.312451
Spine 60.965526 5.249992 -3.295477
Head -17.826596 -0.565647 3.828012
LeftShoulder 16.450403 -58.497215 24.147985
LeftArm 53.879034 0.941406 -16.586581
LeftForeArm -4.073310 -0.000000 -0.231166
LeftHand -5.788752 -0.000000 21.539305
LeftHandThumb1 -26.253704 0.000000 33.147579
RightShoulder 7.208970 24.543103 -33.007367
RightArm 55.938089 40.633609 25.461823
RightForeArm -20.332865 0.000000 9.297886
RightHand -11.243958 0.000000 -26.523567
RightHandThumb1 -24.326973 -0.000000 -32.862282
LeftUpLeg -121.760365 27.243284 -14.095506
LeftLeg 135.254650 -0.000000 -0.000000
LeftFoot -49.036507 18.984093 -11.407816
LeftToeBase 26.593747 -0.000000 -0.000000
RightUpLeg -120.168172 -16.669275 14.047731
RightLeg 133.974086 -0.000000 -0.000000
RightFoot -49.811109 -24.409539 16.585397
RightToeBase 24.404566 -0.000000 -0.000000
221
root 19.681733 12.113399 -12.290789 -167.514668 3.699026 -179.235103
Spine 61.789945 5.235667 -3.111525
Head -17.891801 -0.535339 3.731450
LeftShoulder 16.353946 -58.573091 24.407031
LeftArm 53.872464 0.974887 -16.456206
LeftForeArm -4.164539 -0.000000 -0.192198
LeftHand -5.721579 -0.000000 21.612518
LeftHandThumb1 -26.253704 0.000000 33.147579
RightShoulder 7.256810 24.686743 -33.274600
RightArm 55.928546 40.521948 25.342203
RightForeArm -20.347429 -0.000000 9.259281
RightHand -11.221176 -0.000000 -26.599123
RightHandThumb1 -24.326973 -0.000000 -32.862282
LeftUpLeg -121.916366 27.362349 -13.865644
LeftLeg 135.890755 -0.000000 -0.000000
LeftFoot -48.931003 18.999475 -11.433288
LeftToeBase 26.367961 -0.000000 -0.000000
RightUpLeg -120.298497 -16.824407 14.062712
RightLeg 134.531470 -0.000000 -0.000000
RightFoot -49.718445 -24.471982 16.349227
RightToeBase 24.515432 -0.000000 -0.000000
222
root 19.672101 11.940808 -12.324964 -168.115700 3.718913 -179.125673
Spine 62.675138 5.262197 -2.826488
Head -17.935702 -0.558206 3.691832
LeftShoulder 16.377959 -58.834644 24.579365
LeftArm 53.869283 1.075895 -16.522923
LeftForeArm -4.143861 -0.000000 -0.225360
LeftHand -5.588439 -0.000000 21.579475
LeftHandThumb1 -26.253704 0.000000 33.147579
RightShoulder 7.220344 24.724707 -33.530538
RightArm 56.011638 40.472280 25.308077
RightForeArm -20.339825 -0.000000 9.260685
RightHand -11.095640 0.000000 -26.714829
RightHandThumb1 -24.326973 -0.000000 -32.862282
LeftUpLeg -121.950728 27.504621 -13.531057
LeftLeg 136.510659 -0.000000 -0.000000
LeftFoot -48.888799 19.041218 -11.414941
LeftToeBase 26.289863 -0.000000 -0.000000
RightUpLeg -120.330845 -16.998170 14.089240
RightLeg 135.081204 -0.000000 -0.000000
RightFoot -49.635532 -24.453796 16.188254
RightToeBase 24.469374 -0.000000 -0.000000
223
root 19.657359 11.758643 -12.349479 -168.608161 3.707560 -179.044901
Spine 63.384679 5.217026 -2.618014
Head -17.910173 -0.565109 3.678402
LeftShoulder 16.284351 -58.745313 24.822640
LeftArm 54.002279 1.081485 -16.296962
LeftForeArm -4.084791 -0.000000 -0.202444
LeftHand -5.733292 -0.000000 21.643779
LeftHandThumb1 -26.253704 0.000000 33.147579
RightShoulder 7.194250 24.778284 -33.772798
RightArm 56.092724 40.309206 25.231248
RightForeArm -20.303969 0.000000 9.265766
RightHand -11.110989 -0.000000 -26.830230
RightHandThumb1 -24.326973 -0.000000 -32.862282
LeftUpLeg -122.141297 27.529288 -13.275251
LeftLeg 137.113065 -0.000000 -0.000000
LeftFoot -48.825455 19.174247 -11.344475
LeftToeBase 26.313744 -0.000000 -0.000000
RightUpLeg -120.569398 -17.214464 14.171356
RightLeg 135.632223 -0.000000 -0.000000
RightFoot -49.496207 -24.453286 16.001846
RightToeBase 24.537549 -0.000000 -0.000000
224
root 19.646432 11.605471 -12.382588 -169.279092 3.685084 -178.966316
Spine 64.407053 5.173390 -2.387369
Head -18.045091 -0.633844 3.673157
LeftShoulder 16.229352 -58.806118 25.064884
LeftArm 54.076023 1.097881 -16.004927
LeftForeArm -4.112841 -0.000000 -0.255017
LeftHand -5.615070 -0.000000 21.760231
LeftHandThumb1 -26.253704 0.000000 33.147579
RightShoulder 7.190337 25.022184 -34.042739
RightArm 56.089484 40.217261 25.202411
RightForeArm -20.441292 0.000000 9.288085
RightHand -11.192861 -0.000000 -26.847764
RightHandThumb1 -24.326973 -0.000000 -32.862282
LeftUpLeg -122.058222 27.613685 -12.959101
LeftLeg 137.655910 -0.000000 -0.000000
LeftFoot -48.759136 19.229741 -11.407319
LeftToeBase 26.241265 -0.000000 -0.000000
RightUpLeg -120.516617 -17.478760 14.172978
RightLeg 136.139521 -0.000000 -0.000000
RightFoot -49.382122 -24.389545 15.894425
RightToeBase 24.573027 -0.000000 -0.000000
225
root 19.632234 11.436011 -12.409149 -169.787936 3.669509 -178.921119
Spine 65.122580 5.151087 -2.183138
Head -17.955861 -0.658186 3.677450
LeftShoulder 16.240317 -58.931655 25.277654
LeftArm 54.109835 1.123364 -16.055887
LeftForeArm -4.025591 -0.000000 -0.306967
LeftHand -5.673322 0.000000 21.521688
LeftHandThumb1 -26.253704 0.000000 33.147579
RightShoulder 7.166041 25.284574 -34.240242
RightArm 56.306211 40.044837 25.456880
RightForeArm -20.852513 0.000000 9.208439
RightHand -11.048638 -0.000000 -27.030928
RightHandThumb1 -24.326973 -0.000000 -32.862282
LeftUpLeg -122.193504 27.610282 -12.726728
LeftLeg 138.224167 -0.000000 -0.000000
LeftFoot -48.669360 19.350822 -11.431869
LeftToeBase 26.108035 -0.000000 -0.000000
RightUpLeg -120.688228 -17.708215 14.189070
RightLeg 136.663486 -0.000000 -0.000000
RightFoot -49.250835 -24.385967 15.614128
RightToeBase 24.390321 -0.000000 -0.000000
226
root 19.625076 11.285991 -12.439289 -170.406151 3.685310 -178.835977
Spine 66.027200 5.144227 -1.999381
Head -17.964798 -0.622499 3.700176
LeftShoulder 16.179290 -58.979220 25.595238
LeftArm 54.087960 1.166174 -15.833031
LeftForeArm -4.008101 -0.000000 -0.285243
LeftHand -5.591755 -0.000000 21.854758
LeftHandThumb1 -26.253704 0.000000 33.147579
RightShoulder 7.204733 25.624363 -34.439260
RightArm 56.384449 39.901364 25.564627
RightForeArm -21.171962 -0.000000 9.191841
RightHand -11.202946 0.000000 -27.040467
RightHandThumb1 -24.326973 -0.000000 -32.862282
LeftUpLeg -122.138567 27.735966 -12.384853
LeftLeg 138.744051 -0.000000 -0.000000
LeftFoot -48.595183 19.397580 -11.386091
LeftToeBase 26.199838 -0.000000 -0.000000
RightUpLeg -120.669133 -17.886873 14.185305
RightLeg 137.147391 -0.000000 -0.000000
RightFoot -49.115659 -24.316312 15.513255
RightToeBase 24.456682 -0.000000 -0.000000
